<?xml version="1.0" encoding="UTF-8"?>
<svg xmlns="http://www.w3.org/2000/svg" xmlns:xlink="http://www.w3.org/1999/xlink" width="854" height="480" viewBox="0 0 854 480">
<defs>
<g>
<g id="glyph-0-0">
<path d="M 2.859375 0 L 2.859375 -0.5625 L 3.234375 -0.5625 C 3.441406 -0.5625 3.625 -0.582031 3.78125 -0.625 C 3.945312 -0.664062 4.078125 -0.753906 4.171875 -0.890625 C 4.273438 -1.035156 4.328125 -1.242188 4.328125 -1.515625 L 4.328125 -2.609375 L 0.234375 -2.609375 L 0.234375 -3.15625 L 4.34375 -9.515625 L 5.609375 -9.515625 L 5.609375 -3.359375 L 7.265625 -3.359375 L 7.265625 -2.609375 L 5.609375 -2.609375 L 5.609375 -1.515625 C 5.609375 -1.242188 5.65625 -1.035156 5.75 -0.890625 C 5.851562 -0.753906 5.988281 -0.664062 6.15625 -0.625 C 6.320312 -0.582031 6.503906 -0.5625 6.703125 -0.5625 L 6.875 -0.5625 L 6.875 0 Z M 1.1875 -3.359375 L 4.328125 -3.359375 L 4.328125 -5.828125 C 4.328125 -6.078125 4.328125 -6.363281 4.328125 -6.6875 C 4.335938 -7.019531 4.347656 -7.347656 4.359375 -7.671875 C 4.378906 -8.003906 4.398438 -8.304688 4.421875 -8.578125 C 4.378906 -8.492188 4.304688 -8.363281 4.203125 -8.1875 C 4.109375 -8.007812 4 -7.816406 3.875 -7.609375 C 3.75 -7.398438 3.628906 -7.195312 3.515625 -7 C 3.398438 -6.8125 3.300781 -6.65625 3.21875 -6.53125 Z "/>
</g>
<g id="glyph-0-1">
<path d="M 1.671875 0.09375 C 1.429688 0.09375 1.226562 0.0234375 1.0625 -0.109375 C 0.90625 -0.242188 0.828125 -0.476562 0.828125 -0.8125 C 0.828125 -1.15625 0.90625 -1.390625 1.0625 -1.515625 C 1.226562 -1.648438 1.429688 -1.71875 1.671875 -1.71875 C 1.898438 -1.71875 2.09375 -1.648438 2.25 -1.515625 C 2.414062 -1.390625 2.5 -1.15625 2.5 -0.8125 C 2.5 -0.476562 2.414062 -0.242188 2.25 -0.109375 C 2.09375 0.0234375 1.898438 0.09375 1.671875 0.09375 Z "/>
</g>
<g id="glyph-0-2">
</g>
<g id="glyph-0-3">
<path d="M 0.5 0 L 0.5 -0.5625 L 0.6875 -0.5625 C 0.882812 -0.5625 1.066406 -0.582031 1.234375 -0.625 C 1.398438 -0.664062 1.53125 -0.753906 1.625 -0.890625 C 1.71875 -1.035156 1.765625 -1.242188 1.765625 -1.515625 L 1.765625 -8 C 1.765625 -8.28125 1.71875 -8.488281 1.625 -8.625 C 1.53125 -8.757812 1.398438 -8.847656 1.234375 -8.890625 C 1.066406 -8.929688 0.882812 -8.953125 0.6875 -8.953125 L 0.5 -8.953125 L 0.5 -9.515625 L 4.390625 -9.515625 L 4.390625 -8.953125 L 4.21875 -8.953125 C 4.019531 -8.953125 3.835938 -8.929688 3.671875 -8.890625 C 3.503906 -8.859375 3.367188 -8.773438 3.265625 -8.640625 C 3.171875 -8.515625 3.125 -8.316406 3.125 -8.046875 L 3.125 -0.671875 L 5.75 -0.671875 C 6.007812 -0.671875 6.222656 -0.726562 6.390625 -0.84375 C 6.554688 -0.96875 6.675781 -1.125 6.75 -1.3125 C 6.832031 -1.5 6.890625 -1.679688 6.921875 -1.859375 L 7.046875 -2.859375 L 7.75 -2.859375 L 7.65625 0 Z "/>
</g>
<g id="glyph-0-4">
<path d="M 0.3125 0 L 0.3125 -0.5625 L 0.484375 -0.5625 C 0.671875 -0.5625 0.847656 -0.582031 1.015625 -0.625 C 1.179688 -0.664062 1.316406 -0.75 1.421875 -0.875 C 1.523438 -1 1.578125 -1.191406 1.578125 -1.453125 L 1.578125 -5.671875 C 1.578125 -5.941406 1.523438 -6.140625 1.421875 -6.265625 C 1.316406 -6.398438 1.179688 -6.484375 1.015625 -6.515625 C 0.847656 -6.554688 0.671875 -6.578125 0.484375 -6.578125 L 0.4375 -6.578125 L 0.4375 -7.140625 L 2.828125 -7.140625 L 2.828125 -1.515625 C 2.828125 -1.242188 2.875 -1.035156 2.96875 -0.890625 C 3.070312 -0.753906 3.207031 -0.664062 3.375 -0.625 C 3.539062 -0.582031 3.722656 -0.5625 3.921875 -0.5625 L 4.09375 -0.5625 L 4.09375 0 Z M 2.140625 -8.484375 C 1.929688 -8.484375 1.753906 -8.539062 1.609375 -8.65625 C 1.460938 -8.78125 1.390625 -8.992188 1.390625 -9.296875 C 1.390625 -9.609375 1.460938 -9.820312 1.609375 -9.9375 C 1.753906 -10.0625 1.929688 -10.125 2.140625 -10.125 C 2.347656 -10.125 2.523438 -10.0625 2.671875 -9.9375 C 2.828125 -9.820312 2.90625 -9.609375 2.90625 -9.296875 C 2.90625 -8.992188 2.828125 -8.78125 2.671875 -8.65625 C 2.523438 -8.539062 2.347656 -8.484375 2.140625 -8.484375 Z "/>
</g>
<g id="glyph-0-5">
<path d="M 0.375 0 L 0.375 -0.5625 L 0.484375 -0.5625 C 0.679688 -0.5625 0.863281 -0.582031 1.03125 -0.625 C 1.195312 -0.664062 1.328125 -0.753906 1.421875 -0.890625 C 1.523438 -1.035156 1.578125 -1.242188 1.578125 -1.515625 L 1.578125 -5.671875 C 1.578125 -5.941406 1.523438 -6.140625 1.421875 -6.265625 C 1.328125 -6.398438 1.195312 -6.484375 1.03125 -6.515625 C 0.875 -6.554688 0.695312 -6.578125 0.5 -6.578125 L 0.4375 -6.578125 L 0.4375 -7.140625 L 2.59375 -7.140625 L 2.765625 -6.0625 L 2.84375 -6.0625 C 3.113281 -6.5625 3.421875 -6.890625 3.765625 -7.046875 C 4.109375 -7.203125 4.492188 -7.28125 4.921875 -7.28125 C 5.617188 -7.28125 6.164062 -7.070312 6.5625 -6.65625 C 6.957031 -6.238281 7.15625 -5.578125 7.15625 -4.671875 L 7.15625 -1.515625 C 7.15625 -1.242188 7.195312 -1.035156 7.28125 -0.890625 C 7.363281 -0.753906 7.476562 -0.664062 7.625 -0.625 C 7.78125 -0.582031 7.957031 -0.5625 8.15625 -0.5625 L 8.21875 -0.5625 L 8.21875 0 L 5.90625 0 L 5.90625 -4.59375 C 5.90625 -5.175781 5.796875 -5.625 5.578125 -5.9375 C 5.359375 -6.257812 4.976562 -6.421875 4.4375 -6.421875 C 4.039062 -6.421875 3.722656 -6.320312 3.484375 -6.125 C 3.242188 -5.925781 3.070312 -5.660156 2.96875 -5.328125 C 2.875 -5.003906 2.828125 -4.648438 2.828125 -4.265625 L 2.828125 -1.453125 C 2.828125 -1.191406 2.875 -1 2.96875 -0.875 C 3.070312 -0.75 3.203125 -0.664062 3.359375 -0.625 C 3.515625 -0.582031 3.691406 -0.5625 3.890625 -0.5625 L 3.953125 -0.5625 L 3.953125 0 Z "/>
</g>
<g id="glyph-0-6">
<path d="M 0.234375 0 L 0.234375 -0.5625 L 0.34375 -0.5625 C 0.550781 -0.5625 0.734375 -0.582031 0.890625 -0.625 C 1.054688 -0.664062 1.1875 -0.753906 1.28125 -0.890625 C 1.382812 -1.035156 1.4375 -1.242188 1.4375 -1.515625 L 1.4375 -8.65625 C 1.4375 -8.925781 1.382812 -9.125 1.28125 -9.25 C 1.1875 -9.382812 1.054688 -9.46875 0.890625 -9.5 C 0.722656 -9.539062 0.539062 -9.5625 0.34375 -9.5625 L 0.234375 -9.5625 L 0.234375 -10.125 L 2.6875 -10.125 L 2.6875 -4.984375 C 2.6875 -4.867188 2.679688 -4.71875 2.671875 -4.53125 C 2.671875 -4.34375 2.664062 -4.15625 2.65625 -3.96875 C 2.65625 -3.78125 2.648438 -3.625 2.640625 -3.5 C 2.640625 -3.375 2.640625 -3.3125 2.640625 -3.3125 L 4.3125 -5.125 C 4.5 -5.34375 4.644531 -5.523438 4.75 -5.671875 C 4.851562 -5.816406 4.925781 -5.941406 4.96875 -6.046875 C 5.007812 -6.148438 5.03125 -6.238281 5.03125 -6.3125 C 5.03125 -6.425781 4.976562 -6.5 4.875 -6.53125 C 4.769531 -6.5625 4.609375 -6.578125 4.390625 -6.578125 L 4.390625 -7.140625 L 7.328125 -7.140625 L 7.328125 -6.578125 C 7.179688 -6.578125 7.03125 -6.550781 6.875 -6.5 C 6.726562 -6.445312 6.578125 -6.367188 6.421875 -6.265625 C 6.273438 -6.160156 6.117188 -6.03125 5.953125 -5.875 C 5.796875 -5.71875 5.628906 -5.539062 5.453125 -5.34375 L 4.515625 -4.296875 L 6.296875 -1.65625 C 6.523438 -1.300781 6.75 -1.03125 6.96875 -0.84375 C 7.195312 -0.65625 7.460938 -0.5625 7.765625 -0.5625 L 7.8125 -0.5625 L 7.8125 0 L 7.625 0 C 7.238281 0 6.914062 -0.0078125 6.65625 -0.03125 C 6.40625 -0.0625 6.191406 -0.117188 6.015625 -0.203125 C 5.835938 -0.285156 5.671875 -0.414062 5.515625 -0.59375 C 5.367188 -0.769531 5.203125 -1.003906 5.015625 -1.296875 L 3.671875 -3.390625 L 2.6875 -2.65625 L 2.6875 -1.453125 C 2.6875 -1.191406 2.738281 -1 2.84375 -0.875 C 2.945312 -0.75 3.078125 -0.664062 3.234375 -0.625 C 3.398438 -0.582031 3.582031 -0.5625 3.78125 -0.5625 L 3.828125 -0.5625 L 3.828125 0 Z "/>
</g>
<g id="glyph-0-7">
<path d="M 3.078125 3.203125 C 2.148438 3.203125 1.457031 3.03125 1 2.6875 C 0.539062 2.34375 0.3125 1.863281 0.3125 1.25 C 0.3125 0.90625 0.382812 0.613281 0.53125 0.375 C 0.6875 0.144531 0.890625 -0.0351562 1.140625 -0.171875 C 1.398438 -0.304688 1.675781 -0.398438 1.96875 -0.453125 C 1.789062 -0.535156 1.625 -0.664062 1.46875 -0.84375 C 1.3125 -1.03125 1.234375 -1.265625 1.234375 -1.546875 C 1.234375 -1.816406 1.300781 -2.046875 1.4375 -2.234375 C 1.582031 -2.429688 1.804688 -2.617188 2.109375 -2.796875 C 1.722656 -2.953125 1.425781 -3.210938 1.21875 -3.578125 C 1.007812 -3.953125 0.90625 -4.363281 0.90625 -4.8125 C 0.90625 -5.570312 1.113281 -6.171875 1.53125 -6.609375 C 1.945312 -7.054688 2.570312 -7.28125 3.40625 -7.28125 C 3.726562 -7.28125 4.03125 -7.234375 4.3125 -7.140625 C 4.601562 -7.054688 4.8125 -6.957031 4.9375 -6.84375 C 5.019531 -6.9375 5.125 -7.035156 5.25 -7.140625 C 5.375 -7.253906 5.519531 -7.351562 5.6875 -7.4375 C 5.851562 -7.519531 6.03125 -7.5625 6.21875 -7.5625 C 6.488281 -7.5625 6.6875 -7.488281 6.8125 -7.34375 C 6.945312 -7.207031 7.015625 -7.046875 7.015625 -6.859375 C 7.015625 -6.671875 6.957031 -6.507812 6.84375 -6.375 C 6.726562 -6.238281 6.546875 -6.171875 6.296875 -6.171875 C 6.296875 -6.265625 6.265625 -6.363281 6.203125 -6.46875 C 6.148438 -6.570312 6.035156 -6.625 5.859375 -6.625 C 5.742188 -6.625 5.640625 -6.609375 5.546875 -6.578125 C 5.460938 -6.554688 5.378906 -6.519531 5.296875 -6.46875 C 5.441406 -6.28125 5.5625 -6.054688 5.65625 -5.796875 C 5.757812 -5.546875 5.8125 -5.226562 5.8125 -4.84375 C 5.8125 -4.1875 5.613281 -3.640625 5.21875 -3.203125 C 4.820312 -2.773438 4.21875 -2.5625 3.40625 -2.5625 C 3.300781 -2.5625 3.179688 -2.566406 3.046875 -2.578125 C 2.910156 -2.585938 2.796875 -2.601562 2.703125 -2.625 C 2.535156 -2.539062 2.390625 -2.429688 2.265625 -2.296875 C 2.140625 -2.160156 2.078125 -1.988281 2.078125 -1.78125 C 2.078125 -1.625 2.128906 -1.5 2.234375 -1.40625 C 2.335938 -1.320312 2.5625 -1.28125 2.90625 -1.28125 L 4.40625 -1.28125 C 4.945312 -1.28125 5.375 -1.191406 5.6875 -1.015625 C 6.007812 -0.847656 6.242188 -0.613281 6.390625 -0.3125 C 6.535156 -0.0078125 6.609375 0.328125 6.609375 0.703125 C 6.609375 1.472656 6.320312 2.082031 5.75 2.53125 C 5.175781 2.976562 4.285156 3.203125 3.078125 3.203125 Z M 3.109375 2.546875 C 3.742188 2.546875 4.234375 2.472656 4.578125 2.328125 C 4.929688 2.191406 5.175781 2.003906 5.3125 1.765625 C 5.445312 1.523438 5.515625 1.25 5.515625 0.9375 C 5.515625 0.519531 5.398438 0.242188 5.171875 0.109375 C 4.941406 -0.0234375 4.601562 -0.09375 4.15625 -0.09375 L 2.859375 -0.09375 C 2.609375 -0.09375 2.367188 -0.0625 2.140625 0 C 1.921875 0.0703125 1.738281 0.195312 1.59375 0.375 C 1.457031 0.550781 1.390625 0.816406 1.390625 1.171875 C 1.390625 1.429688 1.4375 1.664062 1.53125 1.875 C 1.625 2.082031 1.796875 2.242188 2.046875 2.359375 C 2.296875 2.484375 2.648438 2.546875 3.109375 2.546875 Z M 3.375 -3.203125 C 3.664062 -3.203125 3.894531 -3.257812 4.0625 -3.375 C 4.238281 -3.488281 4.363281 -3.671875 4.4375 -3.921875 C 4.519531 -4.171875 4.5625 -4.484375 4.5625 -4.859375 C 4.5625 -5.265625 4.519531 -5.597656 4.4375 -5.859375 C 4.351562 -6.117188 4.222656 -6.3125 4.046875 -6.4375 C 3.878906 -6.5625 3.648438 -6.625 3.359375 -6.625 C 3.078125 -6.625 2.847656 -6.554688 2.671875 -6.421875 C 2.492188 -6.296875 2.363281 -6.101562 2.28125 -5.84375 C 2.195312 -5.582031 2.15625 -5.25 2.15625 -4.84375 C 2.15625 -4.28125 2.25 -3.863281 2.4375 -3.59375 C 2.632812 -3.332031 2.945312 -3.203125 3.375 -3.203125 Z "/>
</g>
</g>
</defs>
<g fill="rgb(100%, 100%, 100%)" fill-opacity="1">
<use xlink:href="#glyph-0-0" x="30" y="34.25293"/>
<use xlink:href="#glyph-0-1" x="37" y="34.25293"/>
<use xlink:href="#glyph-0-2" x="40" y="34.25293"/>
<use xlink:href="#glyph-0-3" x="43" y="34.25293"/>
<use xlink:href="#glyph-0-4" x="51" y="34.25293"/>
<use xlink:href="#glyph-0-5" x="55" y="34.25293"/>
<use xlink:href="#glyph-0-6" x="64" y="34.25293"/>
<use xlink:href="#glyph-0-4" x="72" y="34.25293"/>
<use xlink:href="#glyph-0-5" x="76" y="34.25293"/>
<use xlink:href="#glyph-0-7" x="85" y="34.25293"/>
</g>
</svg>
